<?xml version="1.0" encoding="UTF-8" standalone="no"?>
<svg
   xmlns:dc="http://purl.org/dc/elements/1.1/"
   xmlns:cc="http://creativecommons.org/ns#"
   xmlns:rdf="http://www.w3.org/1999/02/22-rdf-syntax-ns#"
   xmlns:svg="http://www.w3.org/2000/svg"
   xmlns="http://www.w3.org/2000/svg"
   xmlns:sodipodi="http://sodipodi.sourceforge.net/DTD/sodipodi-0.dtd"
   xmlns:inkscape="http://www.inkscape.org/namespaces/inkscape"
   width="195px"
   height="35px"
   viewBox="0 0 195 35"
   version="1.1"
   id="svg13"
   sodipodi:docname="logo.svg"
   inkscape:version="0.92.4 (33fec40, 2019-01-16)">
  <metadata
     id="metadata19">
    <rdf:RDF>
      <cc:Work
         rdf:about="">
        <dc:format>image/svg+xml</dc:format>
        <dc:type
           rdf:resource="http://purl.org/dc/dcmitype/StillImage" />
      </cc:Work>
    </rdf:RDF>
  </metadata>
  <defs
     id="defs17" />
  <sodipodi:namedview
     pagecolor="#ffffff"
     bordercolor="#666666"
     borderopacity="1"
     objecttolerance="10"
     gridtolerance="10"
     guidetolerance="10"
     inkscape:pageopacity="0"
     inkscape:pageshadow="2"
     inkscape:window-width="1366"
     inkscape:window-height="705"
     id="namedview15"
     showgrid="false"
     inkscape:zoom="1.4871795"
     inkscape:cx="97.5"
     inkscape:cy="17.5"
     inkscape:window-x="0"
     inkscape:window-y="30"
     inkscape:window-maximized="1"
     inkscape:current-layer="svg13" />
  <!-- Generator: Sketch 53.2 (72643) - https://sketchapp.com -->
  <g
     id="Mobile"
     transform="matrix(0.90645484,0,0,1,16.916893,0.6002447)"
     style="fill:#0000ff;fill-rule:evenodd;stroke:none;stroke-width:1">
    <g
       id="Home"
       transform="translate(-90,-325)"
       style="fill:#0000ff;fill-rule:nonzero">
      <g
         id="Group"
         transform="translate(30,325)"
         style="fill:#0000ff">
        <g
           id="logo"
           transform="translate(60)"
           style="fill:#0000ff">
          <g
             id="Group-3"
             style="fill:#0000ff">
            <path
               d="M 7.973225,13.495514 19.000024,20.303557 11.366086,26.665172 0.42857313,19.544628 Z M 29.98218,25.883921 v 2.410717 l -10.937513,6.540187 v 0.02232 l -0.02232,-0.02232 -0.02232,0.02232 v -0.02232 L 8.0848323,28.294638 v -2.410717 l 3.2812537,2.14286 7.633938,-6.339293 v -0.04464 l 0.02232,0.02232 0.02232,-0.02232 v 0.04464 l 7.656259,6.339293 z M 11.366086,0.34817655 19.000024,6.7097913 7.973225,13.495514 0.42857313,7.4687208 Z M 30.026823,13.495514 37.571475,19.544628 26.656283,26.665172 19.000024,20.303557 Z M 26.656283,0.34817655 37.571475,7.4687208 30.026823,13.495514 19.000024,6.7097913 Z"
               id=""
               inkscape:connector-curvature="0"
               style="fill:#0000ff" />
            <path
               d="m 61.708333,13.140625 v 5.15625 h 4.544271 c 0.902783,0 1.579859,-0.104166 2.03125,-0.3125 0.798615,-0.364585 1.197917,-1.085064 1.197917,-2.161458 0,-1.163201 -0.386281,-1.944443 -1.158854,-2.34375 -0.43403,-0.225696 -1.085065,-0.338542 -1.953125,-0.338542 z m 5.494792,-3.3333333 c 1.345493,0.026042 2.380639,0.1909707 3.105469,0.4947913 0.72483,0.303821 1.338973,0.750865 1.842448,1.341146 0.416668,0.486114 0.746526,1.024303 0.989583,1.614584 0.243057,0.59028 0.364583,1.263017 0.364583,2.018229 0,0.911463 -0.230032,1.807721 -0.690104,2.688802 -0.460072,0.88108 -1.219613,1.503904 -2.278646,1.868489 0.885421,0.355905 1.512585,0.861542 1.881511,1.516927 0.368925,0.655386 0.553385,1.65581 0.553385,3.001302 v 1.289063 c 0,0.87674 0.03472,1.471353 0.104167,1.783854 0.104167,0.494794 0.34722,0.859374 0.729166,1.09375 V 29 h -4.414062 c -0.121528,-0.425349 -0.208333,-0.768228 -0.260417,-1.028646 -0.104167,-0.538197 -0.16059,-1.089407 -0.169271,-1.653646 l -0.02604,-1.783854 C 68.917535,23.30989 68.694013,22.493926 68.264323,22.085937 67.834633,21.677949 67.02952,21.473958 65.848958,21.473958 H 61.708333 V 29 H 57.789062 V 9.8072917 Z M 83.023437,26.382812 c 1.085075,0 1.9184,-0.38628 2.5,-1.158854 0.581601,-0.772573 0.872396,-1.870652 0.872396,-3.294271 0,-1.423618 -0.290795,-2.519527 -0.872396,-3.28776 -0.5816,-0.768233 -1.414925,-1.152344 -2.5,-1.152344 -1.085074,0 -1.920569,0.384111 -2.50651,1.152344 -0.58594,0.768233 -0.878906,1.864142 -0.878906,3.28776 0,1.423619 0.292966,2.521698 0.878906,3.294271 0.585941,0.772574 1.421436,1.158854 2.50651,1.158854 z m 7.265625,-4.453125 c 0,2.083344 -0.598952,3.865011 -1.796875,5.345053 -1.197922,1.480042 -3.01648,2.220052 -5.455729,2.220052 -2.439248,0 -4.257806,-0.74001 -5.455729,-2.220052 -1.197923,-1.480042 -1.796875,-3.261709 -1.796875,-5.345053 0,-2.048621 0.598952,-3.823777 1.796875,-5.32552 1.197923,-1.501744 3.016481,-2.252604 5.455729,-2.252604 2.439249,0 4.257807,0.75086 5.455729,2.252604 1.197923,1.501743 1.796875,3.276899 1.796875,5.32552 z m 11.132818,-2.03125 c -0.0695,-0.529516 -0.2474,-1.006942 -0.53386,-1.432291 -0.41667,-0.57292 -1.063363,-0.859375 -1.940103,-0.859375 -1.250007,0 -2.105033,0.620653 -2.565105,1.861979 -0.243056,0.659725 -0.364583,1.536453 -0.364583,2.630208 0,1.041672 0.121527,1.879337 0.364583,2.513021 0.442711,1.180562 1.276036,1.770833 2.5,1.770833 0.86806,0 1.484378,-0.234372 1.848958,-0.703125 0.36459,-0.468752 0.58594,-1.076385 0.66406,-1.822916 h 3.78907 c -0.0868,1.128478 -0.49479,2.196175 -1.22396,3.203125 -1.1632,1.623272 -2.88628,2.434896 -5.169273,2.434896 -2.282998,0 -3.962669,-0.677077 -5.039063,-2.03125 -1.076394,-1.354174 -1.614583,-3.111969 -1.614583,-5.273438 0,-2.439248 0.594612,-4.335931 1.783854,-5.690104 1.189242,-1.354173 2.829851,-2.03125 4.921875,-2.03125 1.77952,0 3.23567,0.399302 4.36849,1.197917 1.13282,0.798615 1.80338,2.209191 2.01172,4.23177 z m 6.3151,-10.0260412 h 3.64583 V 20.210937 l 4.6224,-5.338541 h 4.59635 L 115.64063,20.302083 120.79688,29 h -4.47917 l -3.39844,-6.067708 -1.53646,1.601562 V 29 h -3.64583 z m 20.46875,7.6171872 c -0.85938,0 -1.52561,0.269095 -1.9987,0.807292 -0.47309,0.538197 -0.7704,1.267357 -0.89193,2.1875 h 5.76823 c -0.0608,-0.980908 -0.35807,-1.725258 -0.89192,-2.233073 -0.53386,-0.507815 -1.19575,-0.761719 -1.98568,-0.761719 z m 0,-3.059895 c 1.18056,0 2.24392,0.221352 3.1901,0.664062 0.94619,0.442711 1.72743,1.141488 2.34375,2.096354 0.55556,0.842018 0.9158,1.818571 1.08073,2.929688 0.0955,0.651045 0.13455,1.588535 0.11719,2.8125 h -9.71354 c 0.0521,1.423618 0.49913,2.421872 1.34114,2.994791 0.51216,0.355905 1.12847,0.533854 1.84896,0.533854 0.76389,0 1.38455,-0.217011 1.86198,-0.651041 0.26042,-0.234376 0.49045,-0.559894 0.69011,-0.976563 h 3.78906 c -0.0955,0.842018 -0.53385,1.697045 -1.31511,2.565104 -1.21528,1.380216 -2.91665,2.070313 -5.10416,2.070313 -1.80557,0 -3.39843,-0.581591 -4.77865,-1.744792 -1.38021,-1.1632 -2.07031,-3.055542 -2.07031,-5.677083 0,-2.45661 0.62282,-4.340271 1.86849,-5.651042 1.24567,-1.31077 2.8624,-1.966145 4.85026,-1.966145 z m 7.77344,3.151041 V 14.9375 h 1.97916 v -3.958333 h 3.67188 V 14.9375 h 2.30469 v 2.643229 h -2.30469 v 7.5 c 0,0.5816 0.0738,0.94401 0.22135,1.08724 0.14757,0.14323 0.59896,0.214843 1.35417,0.214843 0.11285,0 0.2322,-0.0022 0.35807,-0.0065 0.12587,-0.0043 0.24957,-0.01085 0.3711,-0.01953 v 2.773437 l -1.75782,0.0651 c -1.75348,0.06076 -2.95138,-0.243052 -3.59375,-0.911458 -0.41667,-0.425349 -0.625,-1.080725 -0.625,-1.966146 v -8.736979 z m 14.53125,-4.440104 v 4.231771 h 4.71354 c 0.84202,0 1.5256,-0.158419 2.05078,-0.475261 0.52518,-0.316841 0.78776,-0.878902 0.78776,-1.686197 0,-0.894102 -0.34722,-1.484374 -1.04167,-1.770834 -0.59896,-0.199654 -1.36284,-0.299479 -2.29166,-0.299479 z m 0,7.408854 v 5.117188 h 4.71354 c 0.84202,0 1.49739,-0.112846 1.96614,-0.338542 0.8507,-0.416669 1.27605,-1.215272 1.27605,-2.395833 0,-0.998269 -0.41233,-1.684026 -1.23698,-2.057292 -0.46008,-0.208334 -1.10677,-0.31684 -1.94011,-0.325521 z m 5.49479,-10.7421873 c 2.35244,0.034722 4.01909,0.7161393 5,2.0442713 0.59028,0.815976 0.88541,1.792529 0.88541,2.929687 0,1.171881 -0.29513,2.113712 -0.88541,2.825521 -0.32986,0.399307 -0.81597,0.763887 -1.45834,1.09375 0.98091,0.355904 1.72092,0.920135 2.22006,1.692708 0.49913,0.772574 0.74869,1.710064 0.74869,2.8125 0,1.137159 -0.28645,2.157114 -0.85937,3.059896 -0.36459,0.598961 -0.82031,1.102428 -1.36719,1.510417 -0.61632,0.468752 -1.34331,0.789929 -2.18099,0.963541 C 157.27039,28.913195 156.36112,29 155.38021,29 h -8.69792 V 9.8072917 Z m 15.9375,16.5755203 c 1.08507,0 1.9184,-0.38628 2.5,-1.158854 0.5816,-0.772573 0.87239,-1.870652 0.87239,-3.294271 0,-1.423618 -0.29079,-2.519527 -0.87239,-3.28776 -0.5816,-0.768233 -1.41493,-1.152344 -2.5,-1.152344 -1.08508,0 -1.92057,0.384111 -2.50651,1.152344 -0.58594,0.768233 -0.87891,1.864142 -0.87891,3.28776 0,1.423619 0.29297,2.521698 0.87891,3.294271 0.58594,0.772574 1.42143,1.158854 2.50651,1.158854 z m 7.26562,-4.453125 c 0,2.083344 -0.59895,3.865011 -1.79687,5.345053 -1.19792,1.480042 -3.01648,2.220052 -5.45573,2.220052 -2.43925,0 -4.25781,-0.74001 -5.45573,-2.220052 -1.19792,-1.480042 -1.79688,-3.261709 -1.79688,-5.345053 0,-2.048621 0.59896,-3.823777 1.79688,-5.32552 1.19792,-1.501744 3.01648,-2.252604 5.45573,-2.252604 2.43925,0 4.25781,0.75086 5.45573,2.252604 1.19792,1.501743 1.79687,3.276899 1.79687,5.32552 z M 180.47135,29 l 4.84375,-7.1875 -4.63541,-6.979167 h 4.54427 l 2.36979,4.114584 2.31771,-4.114584 h 4.41406 L 189.66406,21.747396 194.50781,29 h -4.62239 L 187.4375,24.742187 184.97656,29 Z"
               id="RocketBox"
               inkscape:connector-curvature="0"
               style="fill:#0000ff" />
          </g>
        </g>
      </g>
    </g>
  </g>
  <title
     id="title2">logo</title>
  <rect
     style="fill:#f9f9f9"
     id="rect3728"
     width="139.18965"
     height="31.603449"
     x="54.448277"
     y="2.0689654" />
  <desc
     id="desc4">Created with Sketch.</desc>
  <text
     xml:space="preserve"
     style="font-style:normal;font-weight:normal;font-size:24.36270714px;line-height:1.25;font-family:sans-serif;letter-spacing:0px;word-spacing:0px;fill:#000000;fill-opacity:1;stroke:none;stroke-width:0.60906762"
     x="62.217148"
     y="26.305273"
     id="text3726"
     transform="scale(0.99652869,1.0034834)"><tspan
       sodipodi:role="line"
       id="tspan3724"
       x="62.217148"
       y="26.305273"
       style="font-style:normal;font-variant:normal;font-weight:bold;font-stretch:normal;font-family:'Noto Sans';-inkscape-font-specification:'Noto Sans Bold';fill:#0000ff;stroke-width:0.60906762">MYBOX</tspan></text>
</svg>
